<?xml version="1.0" encoding="utf-8"?>
<!-- Generator: Adobe Illustrator 16.0.0, SVG Export Plug-In . SVG Version: 6.00 Build 0)  -->
<!DOCTYPE svg PUBLIC "-//W3C//DTD SVG 1.1//EN" "http://www.w3.org/Graphics/SVG/1.1/DTD/svg11.dtd">
<svg version="1.1" id="圖層_1" xmlns="http://www.w3.org/2000/svg" xmlns:xlink="http://www.w3.org/1999/xlink" x="0px" y="0px"
	 width="100px" height="50px" viewBox="0 0 100 50" enable-background="new 0 0 100 50" xml:space="preserve">
<g>
	<g>
		<path fill="#EA3939" d="M17.407,36.441l-2.108,2.086c-1.334-1.41-2.89-2.116-4.666-2.116c-1.548,0-2.845,0.514-3.89,1.54
			c-1.045,1.025-1.567,2.273-1.567,3.74c0,1.52,0.542,2.806,1.626,3.86c1.085,1.056,2.423,1.582,4.014,1.582
			c1.035,0,1.907-0.217,2.617-0.651c0.709-0.435,1.282-1.115,1.717-2.043h-4.554v-2.812h7.912l0.021,0.662
			c0,1.376-0.357,2.681-1.069,3.913c-0.713,1.234-1.636,2.175-2.77,2.822C13.557,49.676,12.228,50,10.703,50
			c-1.633,0-3.088-0.354-4.367-1.063c-1.279-0.709-2.292-1.721-3.037-3.031c-0.745-1.313-1.117-2.727-1.117-4.244
			c0-2.081,0.688-3.893,2.063-5.434c1.633-1.83,3.756-2.746,6.373-2.746c1.369,0,2.648,0.252,3.838,0.759
			C15.46,34.668,16.445,35.402,17.407,36.441z"/>
		<path fill="#EA3939" d="M20.159,33.877h3.215l2.934,5.658l2.92-5.658h3.173l-4.603,8.917v6.812h-3.015v-6.812L20.159,33.877z"/>
		<path fill="#EA3939" d="M36.381,33.877h2.917l3.646,10.971l3.679-10.971h2.915l2.638,15.729h-2.895l-1.686-9.933l-3.342,9.933
			h-2.638l-3.311-9.933l-1.727,9.933h-2.919L36.381,33.877z"/>
		<path fill="#EA3939" d="M60.729,33.877h7.806v2.919h-4.832v2.854h4.832v2.875h-4.832v7.078h-2.974V33.877z"/>
		<path fill="#EA3939" d="M71.09,33.877h3.003v10.17c0,0.876,0.078,1.496,0.231,1.859c0.152,0.363,0.406,0.654,0.759,0.871
			c0.354,0.216,0.778,0.324,1.276,0.324c0.527,0,0.982-0.121,1.363-0.362s0.646-0.55,0.791-0.925
			c0.146-0.373,0.221-1.088,0.221-2.142v-9.797h3.004v9.377c0,1.582-0.09,2.681-0.268,3.292c-0.179,0.614-0.519,1.205-1.021,1.775
			c-0.501,0.57-1.081,0.992-1.736,1.267C78.057,49.861,77.295,50,76.425,50c-1.141,0-2.134-0.262-2.978-0.785
			c-0.846-0.523-1.449-1.18-1.813-1.968c-0.362-0.788-0.544-2.118-0.544-3.993V33.877z"/>
		<path fill="#EA3939" d="M85.225,33.877h2.871l6.729,10.352V33.877h2.993v15.729h-2.879l-6.722-10.317v10.317h-2.993V33.877z"/>
	</g>
	<g>
		<rect x="8.167" y="7.307" fill="#0D74B4" width="4.453" height="17.816"/>
		<rect x="2.182" y="13.989" fill="#0D74B4" width="4.454" height="4.453"/>
		<rect x="14.149" y="5.081" fill="#0D74B4" width="4.454" height="22.269"/>
		<rect x="20.134" y="2.853" fill="#0D74B4" width="4.453" height="26.724"/>
		<rect x="87.382" y="7.307" fill="#0D74B4" width="4.453" height="17.816"/>
		<rect x="93.365" y="13.989" fill="#0D74B4" width="4.453" height="4.453"/>
		<rect x="81.396" y="5.081" fill="#0D74B4" width="4.455" height="22.269"/>
		<rect x="75.414" y="2.853" fill="#0D74B4" width="4.454" height="26.724"/>
		<g>
			<polygon fill="#0D74B4" points="52.266,30.909 46.584,12.622 40.621,26.016 36.607,16.01 35.545,18.442 26.118,18.442 
				26.118,13.989 32.629,13.989 36.781,4.479 40.834,14.585 47.328,0 52.96,18.135 57.4,7.915 61.979,17.068 64.499,13.989 
				73.883,13.989 73.883,18.442 66.607,18.442 61.068,25.209 57.684,18.44 			"/>
		</g>
	</g>
</g>
</svg>
